<svg id="Layer_1" data-name="Layer 1" xmlns="http://www.w3.org/2000/svg" viewBox="0 0 348 304"><defs><style>.cls-1{fill:#6ed3ff;}.cls-2{fill:#fff;}.cls-3{fill:#e82429;}.cls-4{fill:#469ed7;}.cls-5,.cls-8{fill:#2b2727;}.cls-6{fill:#91908f;}.cls-7{fill:#e4e5e5;}.cls-8,.cls-9{opacity:0.2;isolation:isolate;}.cls-10{fill:#e6262c;}.cls-11{fill:#2d8ecd;}.cls-12{fill:none;}</style></defs><path class="cls-1" d="M271.1,249.25a132,132,0,1,0-194.2,0Z"/><polygon class="cls-2" points="184.49 178.69 226.45 159.95 235.15 107.81 237.66 91.22 254.09 60 244.59 52.53 216.13 58.52 185.03 73.15 145.75 42.97 125.86 27.71 124.11 69.39 108.64 103.76 114.72 137.52 145.65 172.39 184.49 178.69"/><path class="cls-3" d="M90.72,117c-11.73,20.67,3.36,29.25,3.36,29.25-.61-1.18-.18-7.16-.18-7.16,3.1,17.05,16.61,30.58,16.61,30.58-.8-2.06-1.71-12.41-1.71-12.41,2.17,11.52,14.68,21.17,14.68,21.17-1.45-1.65-2.91-11.84-2.91-11.84,4.61,9.11,10.36,14.24,14.32,16.91a23.38,23.38,0,0,0,4.68,2.56l1.87.71h0l-.12.07a41.34,41.34,0,0,1,9.11,3.17c-11.06-5.32-6.89-2.35,0-1.64,5.09.53,8.43,1.77,13,.76,9.45-2,18.86-3.74,28.43-5.23,10.47-1.63,16.68-4.33,26.16-7.45,2-.35,4-.67,6-1,3.5-2.66,7.09-5.11,10.83-7.45.62-.37,1.26-.69,1.89-1a107.61,107.61,0,0,0,4.76-11.69c.89,2.45.16,6.38-.88,10a30.53,30.53,0,0,1,5-1.26l.1-.17a12,12,0,0,1,1.57-1.77l-.62.32c3.77-9.75,3.35-21.35,3.35-21.35,3.33,4,2.08,16.29,2.08,16.29,12.28-18.52-8.4-46.86-8.4-46.86,5.6,3.55,14,17.58,14,17.58-2.75-14.82-19.44-28.92-19.44-28.92,21-30.43,20.12-43.78,20.12-43.78-25.19-10.81-54.62,4.86-54.62,4.86a39.69,39.69,0,0,0-30.72-13.66c6.53,1.67,12,7.78,12,7.78a129.7,129.7,0,0,0-25-6.07c-1.94-4.84-10.38-20.45-38.61-20.74,0,0-5.46,20.71-.7,32.79-9,3.71-9.91,7.09-9.91,7.09l9.09-1.77L114.47,86.3A36.55,36.55,0,0,0,95.7,96.74c2.12-1.18,8.94-.38,8.94-.38C87.3,105.19,83.93,121,83.93,121A9.91,9.91,0,0,1,90.72,117ZM216.56,67.42s19.18-11.3,31.9-5.67c0,0-5.76,17.73-15.52,24.75,0,0-6.95-12.07-16.41-19.06Zm-73.41,35.65C146,88.71,159.81,69.84,171.7,72.23s17.37,25.1,14.5,39.49-15.4,21.43-27.3,19-18.64-13.29-15.77-27.67ZM128.36,35.72c15.73,2.05,24.49,14.53,22,15.28-5.71,1.78-20.71,12-20.71,12-6.62-7.93-1.34-27.3-1.34-27.3Z"/><path class="cls-3" d="M250.65,141.55s-.63,30.57-16,43.31c0,0,5.18-12.55,5.62-18.41,0,0-6.87,23.86-42.48,29.17A42.25,42.25,0,0,0,214.52,183s-46,22.64-78.87,1.08l65.21-15.45s29.94-27.47,30.65-27.55S250.65,141.55,250.65,141.55Z"/><path class="cls-2" d="M186.86,162.11c-13.86,6-30.74,5.12-50.25-2.65a.8.8,0,1,1,.59-1.49h0c20.84,8.29,38.56,8.59,52.65.88,21.91-12,27.52-39.52,27.58-39.8a.79.79,0,0,1,.93-.63h0a.81.81,0,0,1,.64.94c-.07.28-5.82,28.57-28.36,40.89A40,40,0,0,1,186.86,162.11Z"/><path class="cls-2" d="M227.78,121.93s-4.43-22.27-18-5.72c0,0,11.88-11.47,18.15,9.19"/><path class="cls-2" d="M137,122c9.41,4.43-13.08,10-13.08,10s-4.67-7-5.76-13.11S127.56,117.58,137,122Z"/><ellipse class="cls-3" cx="172.99" cy="116.57" rx="8.16" ry="4.23" transform="translate(34.95 272.97) rotate(-82.54)"/><ellipse class="cls-2" cx="132.06" cy="106.9" rx="8.15" ry="4.44" transform="matrix(0.13, -0.99, 0.99, 0.13, 8.92, 223.96)"/><circle class="cls-4" cx="186.31" cy="44.29" r="0.22"/><path class="cls-5" d="M214.1,25.44l-.54,1.68L209.13,41.6,206,51.92l-.72,2.1c-.68-.4-1.36-.79-2-1.16-11-6-22.05-8.23-34.57-7.57-.88,0-1.77.1-2.65.17l.31-2,1.64-11.07,2.52-16.92s1.68-1.18,6-1.62c3.62-.36,9.09-.21,17,1.59,9.37,2.14,14.64,4.91,17.51,7A11.13,11.13,0,0,1,214.1,25.44Z"/><path class="cls-5" d="M181.86,65.81c15.82,3.63,29.74,1.77,31.1-4.13S202.57,48,186.76,44.42,157,42.65,155.65,48.55,166,62.19,181.86,65.81Z"/><path class="cls-6" d="M209.07,41.6l-3.18,10.32a19.78,19.78,0,0,1-2.66.89c-15.41,4.66-28.88-3.34-34.56-7.57-1.07-.79-1.86-1.44-2.35-1.87l1.6-11C182.6,44.84,201.8,44.59,209.07,41.6Z"/><path class="cls-7" d="M184.75,55.61c-3.09-.71-4.69-5.23-3.54-10.08a12.2,12.2,0,0,1,3-5.8A5.05,5.05,0,0,1,188.83,38a5,5,0,0,1,3.4,3.55,12,12,0,0,1,.18,6.51h0a12.17,12.17,0,0,1-3,5.8,6.2,6.2,0,0,1-2.56,1.64A3.84,3.84,0,0,1,184.75,55.61Zm0-15.34A11.47,11.47,0,0,0,182,45.69c-1,4.44.33,8.56,3,9.17a4.22,4.22,0,0,0,3.89-1.52,11.45,11.45,0,0,0,2.81-5.42h0a11.49,11.49,0,0,0-.16-6.1,4.26,4.26,0,0,0-2.86-3.06,3,3,0,0,0-1.66.08,5.46,5.46,0,0,0-2.28,1.43Z"/><ellipse class="cls-7" cx="186.77" cy="46.81" rx="5.8" ry="3.6" transform="translate(99.44 218.41) rotate(-77.1)"/><path class="cls-7" d="M175.85,49a2.73,2.73,0,0,1-1.86-2,6.55,6.55,0,0,1-.1-3.54c.6-2.66,2.48-4.51,4.16-4.12a2.73,2.73,0,0,1,1.87,2,6.59,6.59,0,0,1,.1,3.55C179.54,47,178.25,48.55,177,49A2.2,2.2,0,0,1,175.85,49Zm-1.55-5.43a6.21,6.21,0,0,0,.08,3.34A2.32,2.32,0,0,0,176,48.59c1.46.33,3.11-1.37,3.67-3.8a6.31,6.31,0,0,0-.09-3.34A2.31,2.31,0,0,0,178,39.78a1.68,1.68,0,0,0-.89,0C175.86,40.17,174.74,41.65,174.3,43.58Z"/><ellipse class="cls-7" cx="176.95" cy="44.18" rx="3.18" ry="1.97" transform="translate(94.38 206.8) rotate(-77.1)"/><path class="cls-7" d="M195.48,53.7a2.76,2.76,0,0,1-1.87-2,6.68,6.68,0,0,1-.09-3.55c.61-2.66,2.48-4.51,4.17-4.12a2.76,2.76,0,0,1,1.87,2,6.68,6.68,0,0,1,.09,3.55c-.47,2.08-1.72,3.67-3.06,4.06A2.09,2.09,0,0,1,195.48,53.7ZM194,48.3a6.21,6.21,0,0,0,.08,3.34,2.37,2.37,0,0,0,1.56,1.69c1.47.32,3.11-1.38,3.67-3.81a6.21,6.21,0,0,0-.08-3.34,2.32,2.32,0,0,0-1.57-1.67,1.68,1.68,0,0,0-.89,0C195.53,44.87,194.4,46.34,194,48.3Z"/><ellipse class="cls-7" cx="196.6" cy="48.88" rx="3.18" ry="1.97" transform="translate(105.07 229.61) rotate(-77.1)"/><path class="cls-8" d="M213,61.67a4.8,4.8,0,0,1-1.52,2.48c-1.56-7.46-10.29-10.64-10.29-10.64l3.61-34.45a32,32,0,0,1,6.15,3.39,11.23,11.23,0,0,1,3.19,3l-.54,1.68L209.13,41.6,206,51.92h0C210.89,55.12,213.65,58.64,213,61.67Z"/><path class="cls-5" d="M133.78,222.71a9.62,9.62,0,0,1-3.94-.75,7.82,7.82,0,0,1-2.82-2.09,9,9,0,0,1-1.69-3.1,12.34,12.34,0,0,1-.57-3.8,12.65,12.65,0,0,1,.28-2.71,7.86,7.86,0,0,1,1-2.52,10.84,10.84,0,0,1,1.4-1.84,7,7,0,0,1,1.72-1.3,8,8,0,0,1,2.14-.76,13.34,13.34,0,0,1,2.64-.24,10.57,10.57,0,0,1,3.71.62,7.49,7.49,0,0,1,2.8,1.83,7.88,7.88,0,0,1,1.76,3,12.34,12.34,0,0,1,.61,4.06,12.87,12.87,0,0,1-.51,3.62,8.77,8.77,0,0,1-1.61,3.09,7.8,7.8,0,0,1-2.82,2.13A9.66,9.66,0,0,1,133.78,222.71Zm.16-3.46a4.39,4.39,0,0,0,3.75-1.64,7.25,7.25,0,0,0,1.23-4.45,8.29,8.29,0,0,0-.3-2.24,5.41,5.41,0,0,0-.92-1.88,4.64,4.64,0,0,0-1.57-1.3,4.84,4.84,0,0,0-2.22-.49,5.32,5.32,0,0,0-2.25.46,3.91,3.91,0,0,0-1.57,1.33c-.16.23-.3.47-.43.7a4.82,4.82,0,0,0-.34.82,6.45,6.45,0,0,0-.23,1.09,13.36,13.36,0,0,0-.08,1.53,6.93,6.93,0,0,0,1.29,4.5A4.45,4.45,0,0,0,133.94,219.25Z"/><path class="cls-5" d="M147.07,222.2a1.42,1.42,0,0,1-1-.35,1.21,1.21,0,0,1-.38-.92v-.67c0-.35,0-.77,0-1.27s0-1.05,0-1.65,0-1.21,0-1.8,0-1.17,0-1.71v-1.38c0-.56,0-1.18,0-1.87s0-1.33,0-1.93,0-1.13,0-1.56,0-.69,0-.78a2.88,2.88,0,0,1,.47-1.76,2.19,2.19,0,0,1,1.83-.63,3.35,3.35,0,0,1,1.08.15,2.46,2.46,0,0,1,.75.41,2.69,2.69,0,0,1,.55.61,7.68,7.68,0,0,1,.49.76c.11.19.32.55.65,1.07s.7,1.12,1.12,1.82.88,1.46,1.37,2.25.95,1.57,1.38,2.33l1,1.68.58,1a3.31,3.31,0,0,0,.31.5c.07.09.14.14.19.14s.19-.11.19-.33,0-.85,0-1.85-.06-2.23-.06-3.7c0-1.08,0-1.91,0-2.49s0-1,0-1.35,0-.59,0-.8,0-.48,0-.83a1.37,1.37,0,0,1,.32-1,1.5,1.5,0,0,1,1.09-.34h.73a1.54,1.54,0,0,1,1,.3,1.24,1.24,0,0,1,.37,1v14.4a2.74,2.74,0,0,1-.54,1.83,2.57,2.57,0,0,1-2,.64,2.62,2.62,0,0,1-1.84-.61A6.42,6.42,0,0,1,155.3,220c-.14-.24-.39-.64-.73-1.22l-1.14-1.93-1.26-2.13c-.42-.73-.78-1.35-1.07-1.87-.41-.74-.73-1.34-1-1.79l-.51-1a4.42,4.42,0,0,0-.26-.49.23.23,0,0,0-.19-.12c-.09,0-.13.09-.13.27s0,.76,0,1.68,0,2.08,0,3.49v1c0,.54,0,1.14,0,1.79s0,1.28,0,1.89v1.36a1.06,1.06,0,0,1-.46,1,2,2,0,0,1-1.13.3Z"/><path class="cls-5" d="M174.9,218.87a1.31,1.31,0,0,1,.9.31,1.94,1.94,0,0,1,.35,1.39,3.63,3.63,0,0,1-.1,1,.92.92,0,0,1-.28.51.94.94,0,0,1-.45.21,5,5,0,0,1-.61,0l-1.09,0h-5.68l-1.38,0h-.84a1.72,1.72,0,0,1-1.24-.38,1.63,1.63,0,0,1-.38-1.19c0-.17,0-.56,0-1.19s0-1.36,0-2.17,0-1.66,0-2.53,0-1.64,0-2.29,0-1.36,0-2.13,0-1.5,0-2.2,0-1.33,0-1.87,0-.92,0-1.14a1.28,1.28,0,0,1,.43-1.07,2.91,2.91,0,0,1,1.65-.33,3.25,3.25,0,0,1,1.68.29,1.33,1.33,0,0,1,.43,1.17c0,.2,0,.62,0,1.27s0,1.41,0,2.29,0,1.8,0,2.79,0,1.9,0,2.76,0,1.59,0,2.22,0,1,0,1.15a1.35,1.35,0,0,0,.21.91,1.62,1.62,0,0,0,1,.2Z"/><path class="cls-5" d="M179.42,222.17a1.31,1.31,0,0,1-1.09-.39,1.57,1.57,0,0,1-.31-1s0-.19,0-.4,0-.57,0-1.06,0-1.15,0-2,0-1.91,0-3.21q0-3.71,0-5.82V205.2c0-.89.51-1.33,1.52-1.33h1a1.26,1.26,0,0,1,1,.34,1.43,1.43,0,0,1,.3,1v5c0,.8,0,1.72,0,2.78s0,2.09,0,3.11,0,1.95,0,2.78,0,1.4,0,1.73a1.61,1.61,0,0,1-.36,1.19,1.5,1.5,0,0,1-1.05.35Z"/><path class="cls-5" d="M186.6,222.2a1.42,1.42,0,0,1-1-.35,1.18,1.18,0,0,1-.38-.92v-.67c0-.35,0-.77,0-1.27s0-1.05,0-1.65,0-1.21,0-1.8,0-1.17,0-1.71v-1.38c0-.56,0-1.18,0-1.87s0-1.33,0-1.93,0-1.13,0-1.56,0-.69,0-.78a2.88,2.88,0,0,1,.47-1.76,2.19,2.19,0,0,1,1.83-.63,3.35,3.35,0,0,1,1.08.15,2.46,2.46,0,0,1,.75.41,3,3,0,0,1,.55.61c.16.23.33.48.49.76s.32.55.65,1.07.7,1.12,1.12,1.82.88,1.46,1.37,2.25.95,1.57,1.38,2.33l1,1.68.58,1a3.31,3.31,0,0,0,.31.5c.07.09.13.14.19.14s.19-.11.19-.33,0-.85-.06-1.85,0-2.23,0-3.7c0-1.08,0-1.91,0-2.49s0-1,0-1.35,0-.59,0-.8,0-.48,0-.83a1.37,1.37,0,0,1,.32-1,1.5,1.5,0,0,1,1.09-.34h.73a1.54,1.54,0,0,1,1,.3,1.24,1.24,0,0,1,.37,1v14.4a2.74,2.74,0,0,1-.54,1.83,2.57,2.57,0,0,1-2,.64,2.62,2.62,0,0,1-1.84-.61,6.42,6.42,0,0,1-1.25-1.58c-.14-.24-.39-.64-.73-1.22L193,216.86l-1.26-2.13c-.42-.73-.78-1.35-1.07-1.87-.41-.74-.73-1.34-1-1.79s-.4-.8-.51-1-.21-.41-.26-.49a.23.23,0,0,0-.19-.12c-.09,0-.13.09-.13.27s0,.76,0,1.68,0,2.08,0,3.49v1c0,.54,0,1.14,0,1.79s0,1.28,0,1.89v1.36a1.06,1.06,0,0,1-.46,1,2,2,0,0,1-1.13.3Z"/><path class="cls-5" d="M208.26,214.94a.53.53,0,0,0-.5.21.89.89,0,0,0-.12.47c0,.16,0,.44,0,.83s0,.8,0,1.25a1,1,0,0,0,.34.9,1.93,1.93,0,0,0,1,.21h7.26a1.06,1.06,0,0,1,1,.38,2.85,2.85,0,0,1,.26,1.46,2.37,2.37,0,0,1-.23,1.2,1,1,0,0,1-.88.37h-1.72l-3.08,0h-1.85l-2,0h-2.64a2.43,2.43,0,0,1-.68-.08.94.94,0,0,1-.38-.25.79.79,0,0,1-.17-.37,2.35,2.35,0,0,1,0-.47c0-.16,0-.57,0-1.23s0-1.41,0-2.27,0-1.73,0-2.63,0-1.66,0-2.31,0-1.37,0-2.14,0-1.52,0-2.24,0-1.34,0-1.9,0-.95,0-1.17a1.54,1.54,0,0,1,.25-.95,1.5,1.5,0,0,1,1.15-.32h3.58l3.21,0c1,0,1.78,0,2.45,0l1.3,0a1.09,1.09,0,0,1,.89.35,2.18,2.18,0,0,1,.3,1.35,2,2,0,0,1-.33,1.3,1.33,1.33,0,0,1-1.11.41H215l-1.16,0-1.48,0-1.52,0-1.32,0h-.84a.79.79,0,0,0-.9.89v3a1.06,1.06,0,0,0,.18.68.93.93,0,0,0,.72.22h7a1.07,1.07,0,0,1,.88.31,1.86,1.86,0,0,1,.26,1.15,2,2,0,0,1-.22,1.08.89.89,0,0,1-.84.35Z"/><path class="cls-2" d="M171.17,253.49H155.56v-5.37l3.72.08,8.48.14,3.21.08h1.75c1.28,0,7.63-.44,7.63-9.32,0-3.22-.53-5.24-1.76-6.73a7.31,7.31,0,0,0-5.94-2.51h-7.92l-8.5-.11c-3.39-.05-7.49-.13-12.25-.22h-.58c-1.76,0-4.31.22-6.1,2.1a7.79,7.79,0,0,0-2,5.6v.67a18.82,18.82,0,0,0-2.78-3.07A23.25,23.25,0,0,0,125,230.5a31.44,31.44,0,0,0-10.76-1.65,35.29,35.29,0,0,0-8.86,1.07,21.78,21.78,0,0,0-7.84,3.71A18.73,18.73,0,0,0,92,240.36a21.34,21.34,0,0,0-2,9.4,20.17,20.17,0,0,0,.87,5.93,15,15,0,0,0,3.44,5.78c.29.3.59.6.91.89-4.09.91-6.62,4.33-6.62,9.24a14.55,14.55,0,0,0,1.75,6.61,19.06,19.06,0,0,0,5,6.07,27.19,27.19,0,0,0,7.81,4.29A31.46,31.46,0,0,0,114,290.29a36.21,36.21,0,0,0,10.15-1.3,24.3,24.3,0,0,0,7.74-3.72,17.17,17.17,0,0,0,3.25-3.18,6.8,6.8,0,0,0,4.49,6,17.73,17.73,0,0,0,5.88.78,13.78,13.78,0,0,0,6.11-1.08,7,7,0,0,0,3.72-6.62V270.66h15.77c4.15,0,6.07-1.82,6.94-3.35a10.41,10.41,0,0,0,1.2-5.31,9,9,0,0,0-1.75-5.86C176.24,254.39,174.06,253.49,171.17,253.49Z"/><path class="cls-3" d="M97.54,266.73a4.63,4.63,0,0,1,2.73.73,9.06,9.06,0,0,1,1.92,1.89c.59.76,1.19,1.57,1.81,2.43a12.77,12.77,0,0,0,2.32,2.44,11.38,11.38,0,0,0,3.54,1.88,17.1,17.1,0,0,0,5.46.73c3,0,5-.41,6.2-1.25a4,4,0,0,0,1.77-3.39,5.69,5.69,0,0,0-.48-2.44,4.75,4.75,0,0,0-2-1.92,22.24,22.24,0,0,0-4.14-1.77q-2.65-.88-7.08-1.92a31.34,31.34,0,0,1-7.3-2.5,17,17,0,0,1-4.61-3.32,10.18,10.18,0,0,1-2.4-4,15.05,15.05,0,0,1-.67-4.57,16.49,16.49,0,0,1,1.52-7.38,13.9,13.9,0,0,1,4.13-5.09,17.24,17.24,0,0,1,6.2-2.92,30.81,30.81,0,0,1,7.71-.92,26.75,26.75,0,0,1,9.18,1.37,18.58,18.58,0,0,1,6,3.43,12.73,12.73,0,0,1,3.36,4.5,11.6,11.6,0,0,1,1,4.57,5.42,5.42,0,0,1-1.11,3.43c-.73,1-2.14,1.44-4.2,1.44a4.82,4.82,0,0,1-3.47-1.14,7.41,7.41,0,0,1-1.77-2.62,16.1,16.1,0,0,0-1.44-2.8,7.16,7.16,0,0,0-1.88-2,7.54,7.54,0,0,0-2.69-1.14,17.33,17.33,0,0,0-4-.37q-4,0-5.94,1.66a5.63,5.63,0,0,0-2,4.53,8.71,8.71,0,0,0,.36,2.59,5.42,5.42,0,0,0,1.52,2.25,10.74,10.74,0,0,0,3.35,2,35.73,35.73,0,0,0,6,1.63,43.64,43.64,0,0,1,8.89,2.62,17.74,17.74,0,0,1,5.35,3.39,9.93,9.93,0,0,1,2.62,4.17,16.19,16.19,0,0,1,.7,4.79,12.42,12.42,0,0,1-1.22,5.43,12,12,0,0,1-3.72,4.42,19.83,19.83,0,0,1-6.27,3,31.58,31.58,0,0,1-8.86,1.11,26.91,26.91,0,0,1-9.29-1.44,22.45,22.45,0,0,1-6.5-3.54,14.22,14.22,0,0,1-3.83-4.58,10.13,10.13,0,0,1-1.26-4.53Q93.26,266.73,97.54,266.73Z"/><path class="cls-3" d="M152.51,266.06a2,2,0,0,0-1.33.3,1.3,1.3,0,0,0-.3,1v13.87a2.53,2.53,0,0,1-1.18,2.51,9.91,9.91,0,0,1-4,.59,14,14,0,0,1-4.36-.52c-1-.34-1.47-1.23-1.47-2.66,0-.44,0-1.5.07-3.17s.09-3.6.11-5.79.06-4.44.11-6.75.08-4.35.08-6.13v-6.12c0-2.31-.06-4.55-.11-6.71s-.09-4.1-.11-5.8,0-2.83,0-3.43a3.47,3.47,0,0,1,.7-2.43q.71-.73,3.21-.66l12.32.22,8.52.11h8a3,3,0,0,1,2.4.85c.46.57.7,1.84.7,3.8,0,3.15-1,4.73-3,4.72h-1.62l-3.25-.08-4.16-.07-4.32-.07-3.73-.08h-2.32a2.48,2.48,0,0,0-1.81.55,2.61,2.61,0,0,0-.55,1.88v9.44a2.41,2.41,0,0,0,2,2.73,2.66,2.66,0,0,0,.69,0h17.48a3.51,3.51,0,0,1,2.88.93,4.81,4.81,0,0,1,.74,3,6.35,6.35,0,0,1-.59,3c-.4.69-1.38,1-3,1Z"/><circle class="cls-9" cx="224.2" cy="262.88" r="30.44"/><circle class="cls-2" cx="228.37" cy="258.32" r="30.97"/><g id="rect8767"><path class="cls-10" d="M242.14,281.46a27,27,0,0,1-27.54,0Z"/></g><path class="cls-2" d="M208.92,276.93h38.9a27,27,0,0,1-5.68,4.53H214.6A27,27,0,0,1,208.92,276.93Z"/><path class="cls-10" d="M205.42,272.4h45.9a25.24,25.24,0,0,1-3.5,4.53h-38.9A25.24,25.24,0,0,1,205.42,272.4Z"/><path class="cls-2" d="M203.19,267.87h50.36a26.09,26.09,0,0,1-2.23,4.53h-45.9A26.09,26.09,0,0,1,203.19,267.87Z"/><path class="cls-10" d="M202,263.63h52.78a25,25,0,0,1-1.21,4.24H203.19A25,25,0,0,1,202,263.63Z"/><path class="cls-2" d="M255.27,259.38a27.55,27.55,0,0,1-.51,4.25H202a27.55,27.55,0,0,1-.51-4.25Z"/><path class="cls-10" d="M255.1,255.14a26.09,26.09,0,0,1,.19,3.18v1.06h-53.8v-1.06a26.09,26.09,0,0,1,.19-3.18Z"/><path class="cls-2" d="M255.1,255.14H201.64v-.3a23.64,23.64,0,0,1,.56-3c.07-.32.16-.63.25-.94h51.76A26.63,26.63,0,0,1,255.1,255.14Z"/><path class="cls-10" d="M254.25,250.9H202.49c.17-.62.37-1.23.59-1.83l.12-.32q.31-.84.69-1.65h0l.19-.41h48.54A27.55,27.55,0,0,1,254.25,250.9Z"/><path class="cls-2" d="M252.64,246.65H204.1a20.19,20.19,0,0,1,1-1.83c.31-.56.65-1.1,1-1.63l.56-.78H250.1A26,26,0,0,1,252.64,246.65Z"/><path class="cls-10" d="M250.09,242.41H206.65c.3-.41.61-.82.93-1.21h.07a27.58,27.58,0,0,1,2.92-3h35.68A26,26,0,0,1,250.09,242.41Z"/><path class="cls-2" d="M239.75,233.92a26.43,26.43,0,0,1,6.46,4.24H210.53a26.27,26.27,0,0,1,6-4l.09-.23Z"/><g id="rect8793"><polygon class="cls-10" points="216.62 233.87 216.64 233.92 216.6 233.92 216.62 233.87"/><path class="cls-10" d="M239.75,233.92H217a23,23,0,0,1,2.24-.93c.76-.28,1.53-.52,2.32-.73a26.77,26.77,0,0,1,5.56-.83,4.86,4.86,0,0,1,.54,0h.72a24.19,24.19,0,0,1,2.55.13A26.23,26.23,0,0,1,239.75,233.92Z"/></g><g id="layer5"><g id="rect8796"><path class="cls-11" d="M230.92,231.52v27.86H201.47v-1.06a26.09,26.09,0,0,1,.19-3.18v-.3a23.64,23.64,0,0,1,.56-3c.07-.32.16-.63.25-.94.17-.62.37-1.23.59-1.83l.12-.32q.31-.84.69-1.65h0l.19-.41a20.19,20.19,0,0,1,1-1.83c.31-.56.65-1.1,1-1.63l.56-.78c.3-.41.61-.82.93-1.21h.07a27.58,27.58,0,0,1,2.92-3,26.27,26.27,0,0,1,6-4l.09-.23H217a23,23,0,0,1,2.24-.93c.76-.28,1.53-.52,2.32-.73a26.77,26.77,0,0,1,5.56-.83,4.86,4.86,0,0,1,.54,0h.72C229.23,231.48,230.07,231.48,230.92,231.52Z"/></g></g><g id="layer6"><g id="path8829"><path class="cls-2" d="M204.14,255.88l1.25-.13.47-1.22.51,1.2,1.25.1-.93.88L207,258l-1.08-.66-1.07.69.26-1.28Z"/></g><g id="path8831"><path class="cls-2" d="M211.21,255.88l1.25-.13.48-1.22.5,1.2,1.25.1-.93.88.3,1.27-1.09-.66-1.06.69.26-1.28Z"/></g><g id="path8833"><path class="cls-2" d="M218.29,255.88l1.24-.13.48-1.22.51,1.2,1.25.1-.94.88.3,1.27-1.08-.66L219,258l.26-1.28Z"/></g><g id="path8835"><path class="cls-2" d="M225.64,255.88l1.25-.13.48-1.22.51,1.2,1.25.1-.94.88.3,1.27-1.09-.66-1.06.69.26-1.28Z"/></g><g id="path8853"><path class="cls-2" d="M203,253.88l.3,1.26h0l-1.07-.65-.54.35a23.64,23.64,0,0,1,.56-3l.45,1.06,1.25.1Z"/></g><g id="path8857"><path class="cls-2" d="M203.2,248.75l.11.46-.23-.14Z"/></g><g id="path8869"><path class="cls-2" d="M207.53,253.05l1.25-.13.48-1.22.51,1.2,1.25.1-.94.88.3,1.27-1.09-.66-1.06.69.26-1.28Z"/></g><g id="path8871"><path class="cls-2" d="M204.14,249.94l1.25-.14.47-1.21.51,1.2,1.25.1-.93.87L207,252l-1.08-.66-1.07.69.26-1.28Z"/></g><g id="path8873"><path class="cls-2" d="M218.29,249.94l1.24-.14.48-1.21.51,1.2,1.25.1-.94.87.3,1.28-1.08-.66-1.07.69.26-1.28Z"/></g><g id="path8875"><path class="cls-2" d="M211.21,249.94l1.25-.14.48-1.21.5,1.2,1.25.1-.93.87.3,1.28-1.09-.66-1.06.69.26-1.28Z"/></g><g id="path8877"><path class="cls-2" d="M222,253.05l1.24-.13.48-1.22.51,1.2,1.25.1-.94.88.3,1.27-1.08-.66-1.07.69.26-1.28Z"/></g><g id="path8879"><path class="cls-2" d="M214.89,253.05l1.25-.13.47-1.22.51,1.2,1.25.1-.93.88.3,1.27-1.09-.66-1.07.69.27-1.28Z"/></g><g id="path8887"><polygon class="cls-2" points="210.18 242.41 210.38 243.27 209.3 242.61 208.23 243.3 208.41 242.41 208.49 242.01 207.58 241.2 207.54 241.17 207.61 241.16 208.78 241.03 209.26 239.82 209.77 241.02 211.02 241.12 210.08 241.99 210.18 242.41"/></g><g id="path8889"><path class="cls-2" d="M206.69,244.82l.29,1.28-1.08-.66-1.07.69.27-1.29h0c.31-.56.65-1.1,1-1.63l.28.66,1.25.1Z"/></g><g id="path8891"><path class="cls-2" d="M207.53,247.11l1.25-.14.48-1.21.51,1.2,1.25.1-.94.87.3,1.28-1.09-.66-1.06.69.26-1.28Z"/></g><g id="path8893"><path class="cls-2" d="M225.64,249.94l1.25-.14.48-1.21.51,1.2,1.25.1-.94.87.3,1.28-1.09-.66-1.06.69.26-1.28Z"/></g><g id="path8895"><path class="cls-2" d="M211.21,244l1.25-.14.48-1.21.5,1.2,1.25.1-.93.87.3,1.28-1.09-.66-1.06.69.26-1.29Z"/></g><g id="path8899"><path class="cls-2" d="M211.21,238.05l1.25-.13.48-1.22.5,1.2,1.25.1-.93.88.3,1.27L213,239.5l-1.06.69.26-1.29Z"/></g><g id="path8901"><path class="cls-2" d="M222,247.11l1.24-.14.48-1.21.51,1.2,1.25.1-.94.87.3,1.28-1.08-.66-1.07.69L223,248Z"/></g><g id="path8903"><path class="cls-2" d="M214.89,247.11l1.25-.14.47-1.21.51,1.2,1.25.1-.93.87.3,1.28-1.09-.66-1.07.69.27-1.28Z"/></g><g id="path8905"><polygon class="cls-2" points="217.44 236.05 217.74 237.32 216.65 236.67 215.59 237.36 215.85 236.07 214.89 235.22 216.14 235.09 216.51 234.15 216.6 233.92 216.62 233.87 216.64 233.92 216.7 234.05 217.12 235.07 218.37 235.17 217.44 236.05"/></g><g id="path8907"><path class="cls-2" d="M214.89,241.17l1.25-.14.47-1.21.51,1.2,1.25.1-.93.87.3,1.28-1.09-.66-1.07.69.27-1.29Z"/></g><g id="path8909"><path class="cls-2" d="M225.64,244l1.25-.14.48-1.21.51,1.2,1.25.1-.94.87.3,1.28-1.09-.66-1.06.69.26-1.29Z"/></g><g id="path8911"><path class="cls-2" d="M218.29,244l1.24-.14.48-1.21.51,1.2,1.25.1-.94.87.3,1.28-1.08-.66-1.07.69.26-1.29Z"/></g><g id="path8913"><path class="cls-2" d="M221.06,233.92l.07.29-.47-.29-.61-.37-.57.37-.5.32.07-.32.18-.93c.76-.28,1.53-.52,2.32-.73l-.71.68Z"/></g><g id="path8915"><path class="cls-2" d="M218.29,238.05l1.24-.13.48-1.22.51,1.2,1.25.1-.94.88.3,1.27-1.08-.65-1.07.69.26-1.29Z"/></g><g id="path8917"><path class="cls-2" d="M228.42,233.92l.07.29-.47-.29-.61-.37-.57.37-.5.32.07-.32.19-1-.95-.85,1.24-.13.22-.55h.54l.23.55,1.25.1-.94.88Z"/></g><g id="path8919"><path class="cls-2" d="M222,235.22l1.24-.13.48-1.21.51,1.19,1.25.1-.94.88.3,1.27-1.08-.65-1.07.69.26-1.29Z"/></g><g id="path8921"><path class="cls-2" d="M225.64,238.05l1.25-.13.48-1.22.51,1.2,1.25.1-.94.88.3,1.27-1.09-.65-1.06.69.26-1.29Z"/></g><g id="path8923"><path class="cls-2" d="M222,241.17l1.24-.14.48-1.21.51,1.2,1.25.1-.94.87.3,1.28-1.08-.66-1.07.69L223,242Z"/></g></g><g id="SVGID"><path class="cls-12" d="M255.29,258.32v1.06a27.55,27.55,0,0,1-.51,4.25,25,25,0,0,1-1.21,4.24,26.09,26.09,0,0,1-2.23,4.53,25.24,25.24,0,0,1-3.5,4.53,26.89,26.89,0,0,1-38,.88l-.88-.88a25.24,25.24,0,0,1-3.5-4.53,26.09,26.09,0,0,1-2.23-4.53,25,25,0,0,1-1.21-4.24,27.55,27.55,0,0,1-.51-4.25v-1.06a26.09,26.09,0,0,1,.19-3.18v-.3a23.64,23.64,0,0,1,.56-3c.07-.32.16-.63.25-.94.17-.62.37-1.23.59-1.83l.12-.32q.31-.84.69-1.65h0l.19-.41a20.19,20.19,0,0,1,1-1.83c.31-.56.65-1.1,1-1.63l.56-.78c.3-.41.61-.82.93-1.21h0a27.58,27.58,0,0,1,2.92-3,26.27,26.27,0,0,1,6-4l.19-.1L217,234a23,23,0,0,1,2.24-.93c.76-.28,1.53-.52,2.32-.73a26.77,26.77,0,0,1,5.56-.83,4.86,4.86,0,0,1,.54,0h.72a24.19,24.19,0,0,1,2.55.13,27,27,0,0,1,21.72,15.13,27.92,27.92,0,0,1,1.61,4.25,28.61,28.61,0,0,1,1.06,7.29Z"/></g></svg>