<?xml version="1.0" encoding="UTF-8"?>
<svg width="20px" height="20px" viewBox="0 0 20 20" version="1.1" xmlns="http://www.w3.org/2000/svg" xmlns:xlink="http://www.w3.org/1999/xlink">
    <!-- Generator: Sketch 60.1 (88133) - https://sketch.com -->
    <title>Artboard</title>
    <desc>Created with Sketch.</desc>
    <g id="Artboard" stroke="none" stroke-width="1" fill="none" fill-rule="evenodd">
        <rect id="Rectangle" fill="#BD081C" x="0" y="0" width="20" height="20"></rect>
        <g id="pinterest-p-brands" transform="translate(4.000000, 3.000000)" fill="#FFFFFF" fill-rule="nonzero">
            <path d="M5.84375,0 C2.9046875,0 0,2.05566848 0,5.38260563 C0,7.49838138 1.134375,8.70052669 1.821875,8.70052669 C2.10546875,8.70052669 2.26875,7.87104643 2.26875,7.63662809 C2.26875,7.35712931 1.58984375,6.76206738 1.58984375,5.59899179 C1.58984375,3.18267971 3.34296875,1.46962264 5.61171875,1.46962264 C7.5625,1.46962264 9.00625,2.63269823 9.00625,4.76951152 C9.00625,6.36535942 8.39609375,9.35870125 6.41953125,9.35870125 C5.70625,9.35870125 5.09609375,8.81773586 5.09609375,8.04235213 C5.09609375,6.90632481 5.85234375,5.80636185 5.85234375,4.63427018 C5.85234375,2.64471969 3.1625,3.00536328 3.1625,5.4096539 C3.1625,5.91455493 3.22265625,6.4735525 3.4375,6.93337308 C3.0421875,8.71855887 2.234375,11.3783054 2.234375,13.2175877 C2.234375,13.7856014 2.31171875,14.3445989 2.36328125,14.9126126 C2.46067708,15.0268164 2.41197917,15.0147949 2.5609375,14.957693 C4.0046875,12.8839924 3.953125,12.4782683 4.60625,9.76442529 C4.95859375,10.4676803 5.86953125,10.8463561 6.59140625,10.8463561 C9.63359375,10.8463561 11,7.73580508 11,4.93180114 C11,1.9474754 8.5421875,0 5.84375,0 Z" id="Path"></path>
        </g>
    </g>
</svg>