<svg xmlns:xlink="http://www.w3.org/1999/xlink" width="18.801ex" height="6.343ex" style="font-size: 15px; vertical-align: -2.338ex;" viewBox="0 -1724.2 8094.7 2730.8" role="img" focusable="false" xmlns="http://www.w3.org/2000/svg">
<defs>
<path stroke-width="1" id="E1-MJMATHI-75" d="M21 287Q21 295 30 318T55 370T99 420T158 442Q204 442 227 417T250 358Q250 340 216 246T182 105Q182 62 196 45T238 27T291 44T328 78L339 95Q341 99 377 247Q407 367 413 387T427 416Q444 431 463 431Q480 431 488 421T496 402L420 84Q419 79 419 68Q419 43 426 35T447 26Q469 29 482 57T512 145Q514 153 532 153Q551 153 551 144Q550 139 549 130T540 98T523 55T498 17T462 -8Q454 -10 438 -10Q372 -10 347 46Q345 45 336 36T318 21T296 6T267 -6T233 -11Q189 -11 155 7Q103 38 103 113Q103 170 138 262T173 379Q173 380 173 381Q173 390 173 393T169 400T158 404H154Q131 404 112 385T82 344T65 302T57 280Q55 278 41 278H27Q21 284 21 287Z"></path>
<path stroke-width="1" id="E1-MJMAIN-32" d="M109 429Q82 429 66 447T50 491Q50 562 103 614T235 666Q326 666 387 610T449 465Q449 422 429 383T381 315T301 241Q265 210 201 149L142 93L218 92Q375 92 385 97Q392 99 409 186V189H449V186Q448 183 436 95T421 3V0H50V19V31Q50 38 56 46T86 81Q115 113 136 137Q145 147 170 174T204 211T233 244T261 278T284 308T305 340T320 369T333 401T340 431T343 464Q343 527 309 573T212 619Q179 619 154 602T119 569T109 550Q109 549 114 549Q132 549 151 535T170 489Q170 464 154 447T109 429Z"></path>
<path stroke-width="1" id="E1-MJMAIN-31" d="M213 578L200 573Q186 568 160 563T102 556H83V602H102Q149 604 189 617T245 641T273 663Q275 666 285 666Q294 666 302 660V361L303 61Q310 54 315 52T339 48T401 46H427V0H416Q395 3 257 3Q121 3 100 0H88V46H114Q136 46 152 46T177 47T193 50T201 52T207 57T213 61V578Z"></path>
<path stroke-width="1" id="E1-MJMATHI-67" d="M311 43Q296 30 267 15T206 0Q143 0 105 45T66 160Q66 265 143 353T314 442Q361 442 401 394L404 398Q406 401 409 404T418 412T431 419T447 422Q461 422 470 413T480 394Q480 379 423 152T363 -80Q345 -134 286 -169T151 -205Q10 -205 10 -137Q10 -111 28 -91T74 -71Q89 -71 102 -80T116 -111Q116 -121 114 -130T107 -144T99 -154T92 -162L90 -164H91Q101 -167 151 -167Q189 -167 211 -155Q234 -144 254 -122T282 -75Q288 -56 298 -13Q311 35 311 43ZM384 328L380 339Q377 350 375 354T369 368T359 382T346 393T328 402T306 405Q262 405 221 352Q191 313 171 233T151 117Q151 38 213 38Q269 38 323 108L331 118L384 328Z"></path>
<path stroke-width="1" id="E1-MJMATHI-6C" d="M117 59Q117 26 142 26Q179 26 205 131Q211 151 215 152Q217 153 225 153H229Q238 153 241 153T246 151T248 144Q247 138 245 128T234 90T214 43T183 6T137 -11Q101 -11 70 11T38 85Q38 97 39 102L104 360Q167 615 167 623Q167 626 166 628T162 632T157 634T149 635T141 636T132 637T122 637Q112 637 109 637T101 638T95 641T94 647Q94 649 96 661Q101 680 107 682T179 688Q194 689 213 690T243 693T254 694Q266 694 266 686Q266 675 193 386T118 83Q118 81 118 75T117 65V59Z"></path>
<path stroke-width="1" id="E1-MJMAIN-3D" d="M56 347Q56 360 70 367H707Q722 359 722 347Q722 336 708 328L390 327H72Q56 332 56 347ZM56 153Q56 168 72 173H708Q722 163 722 153Q722 140 707 133H70Q56 140 56 153Z"></path>
<path stroke-width="1" id="E1-MJMATHBI-46" d="M257 618H231Q198 618 198 636Q202 672 214 678L219 680H795Q801 677 804 673T808 666L809 664Q809 659 798 549T783 433Q777 424 755 424Q736 424 730 427T724 444Q724 448 725 468T727 507V524Q727 541 724 554T713 577T698 594T676 605T653 612T625 616T597 617T566 618T538 618H456L455 614Q455 611 424 491L394 371H429Q454 372 463 372T491 378T517 392T536 419T552 464Q556 481 561 484T586 488Q603 488 607 486Q616 482 616 473Q616 467 584 337T549 201Q542 192 521 192Q503 192 497 195T490 209Q490 212 492 224Q499 251 499 269Q499 288 489 296T465 306T417 308L379 309L348 188Q341 161 334 129T322 80L318 65L317 62H375H409Q430 62 438 59T447 45Q444 8 431 2L426 0L377 1Q347 2 231 2Q152 2 111 1T65 0Q48 0 43 15Q47 54 60 60Q64 62 113 62H162L163 66Q163 67 231 341T301 616Q301 618 257 618Z"></path>
<path stroke-width="1" id="E1-MJMATHBI-72" d="M24 296Q24 298 28 313T42 352T67 398T104 436T154 452Q198 452 230 437T273 404L282 411Q334 452 393 452Q441 452 470 423T500 350Q500 301 473 279T418 256Q395 256 379 270T363 308Q363 366 424 386Q424 388 420 391T405 398T385 401Q363 401 343 390Q321 380 289 341L252 192Q214 42 212 39Q190 -8 142 -8Q117 -8 103 7T89 39Q89 52 127 202T165 369Q165 402 148 402Q139 402 128 393T110 369Q100 348 90 310Q85 289 82 286T60 282H55H44Q24 282 24 296Z"></path>
</defs>
<g stroke="currentColor" fill="currentColor" stroke-width="0" transform="matrix(1 0 0 -1 0 0)">
<g transform="translate(120,0)">
<rect stroke="none" width="1803" height="60" x="0" y="220"></rect>
<g transform="translate(388,827)">
 <use xlink:href="#E1-MJMATHI-75" x="0" y="0"></use>
 <use transform="scale(0.707)" xlink:href="#E1-MJMAIN-32" x="809" y="488"></use>
 <use transform="scale(0.707)" xlink:href="#E1-MJMAIN-31" x="809" y="-435"></use>
</g>
<g transform="translate(60,-716)">
 <use xlink:href="#E1-MJMATHI-67" x="0" y="0"></use>
 <use transform="scale(0.707)" xlink:href="#E1-MJMAIN-31" x="675" y="-213"></use>
<g transform="translate(931,0)">
 <use xlink:href="#E1-MJMATHI-6C" x="0" y="0"></use>
 <use transform="scale(0.707)" xlink:href="#E1-MJMAIN-31" x="422" y="-213"></use>
</g>
</g>
</g>
 <use xlink:href="#E1-MJMAIN-3D" x="2321" y="0"></use>
<g transform="translate(3100,0)">
<g transform="translate(397,0)">
<rect stroke="none" width="1803" height="60" x="0" y="220"></rect>
<g transform="translate(388,827)">
 <use xlink:href="#E1-MJMATHI-75" x="0" y="0"></use>
 <use transform="scale(0.707)" xlink:href="#E1-MJMAIN-32" x="809" y="488"></use>
 <use transform="scale(0.707)" xlink:href="#E1-MJMAIN-32" x="809" y="-435"></use>
</g>
<g transform="translate(60,-716)">
 <use xlink:href="#E1-MJMATHI-67" x="0" y="0"></use>
 <use transform="scale(0.707)" xlink:href="#E1-MJMAIN-32" x="675" y="-213"></use>
<g transform="translate(931,0)">
 <use xlink:href="#E1-MJMATHI-6C" x="0" y="0"></use>
 <use transform="scale(0.707)" xlink:href="#E1-MJMAIN-32" x="422" y="-213"></use>
</g>
</g>
</g>
</g>
 <use xlink:href="#E1-MJMAIN-3D" x="5699" y="0"></use>
<g transform="translate(6755,0)">
 <use xlink:href="#E1-MJMATHBI-46" x="0" y="0"></use>
 <use xlink:href="#E1-MJMATHBI-72" x="809" y="0"></use>
</g>
</g>
</svg>